<!DOCTYPE svg PUBLIC "-//W3C//DTD SVG 1.1//EN" "http://www.w3.org/Graphics/SVG/1.1/DTD/svg11.dtd">
<!-- Uploaded to: SVG Repo, www.svgrepo.com, Transformed by: SVG Repo Mixer Tools -->
<svg height="64px" width="64px" version="1.1" id="Layer_1" xmlns="http://www.w3.org/2000/svg" xmlns:xlink="http://www.w3.org/1999/xlink" viewBox="-107.52 -107.52 727.04 727.04" xml:space="preserve" fill="#000000">
<g id="SVGRepo_bgCarrier" stroke-width="0">
<rect x="-107.52" y="-107.52" width="727.04" height="727.04" rx="363.52" fill="#ffffff" strokewidth="0"/>
</g>
<g id="SVGRepo_tracerCarrier" stroke-linecap="round" stroke-linejoin="round"/>
<g id="SVGRepo_iconCarrier"> <g> <polygon style="fill:#BDC3C7;" points="4.339,468.61 160.542,468.61 160.542,364.475 4.339,364.475 "/> <g> <path style="fill:#8697CB;" d="M256,17.356c-57.422,0-104.136,46.713-104.136,104.136S198.578,225.627,256,225.627 s104.136-46.713,104.136-104.136S313.422,17.356,256,17.356 M256,242.983c-66.994,0-121.492-54.498-121.492-121.492 S189.006,0,256,0s121.492,54.498,121.492,121.492S322.994,242.983,256,242.983"/> <path style="fill:#8697CB;" d="M256,17.356c-27.483,0-50.697,47.685-50.697,104.136S228.517,225.627,256,225.627 s50.697-47.685,50.697-104.136S283.483,17.356,256,17.356 M256,242.983c-38.157,0-68.053-53.361-68.053-121.492S217.843,0,256,0 s68.053,53.361,68.053,121.492S294.157,242.983,256,242.983"/> <polygon style="fill:#8697CB;" points="247.322,234.305 264.678,234.305 264.678,8.678 247.322,8.678 "/> <polygon style="fill:#8697CB;" points="143.186,130.169 368.814,130.169 368.814,112.814 143.186,112.814 "/> </g> <path style="fill:#95A5A5;" d="M99.797,468.61H65.085c0,23.986-19.404,43.39-43.39,43.39h121.492 C119.201,512,99.797,492.596,99.797,468.61"/> <polygon style="fill:#BDC3C7;" points="351.458,468.61 507.661,468.61 507.661,364.475 351.458,364.475 "/> <path style="fill:#95A5A5;" d="M446.915,468.61h-34.712c0,23.986-19.404,43.39-43.39,43.39h121.492 C466.319,512,446.915,492.596,446.915,468.61"/> <g> <path style="fill:#C03A2B;" d="M429.559,338.441c-4.79,0-8.678-3.879-8.678-8.678v-26.034H91.119v26.034 c0,4.799-3.888,8.678-8.678,8.678s-8.678-3.879-8.678-8.678v-34.712c0-4.799,3.888-8.678,8.678-8.678h347.119 c4.79,0,8.678,3.879,8.678,8.678v34.712C438.237,334.562,434.35,338.441,429.559,338.441"/> <path style="fill:#C03A2B;" d="M256,303.729c-4.79,0-8.678-3.879-8.678-8.678v-26.034c0-4.799,3.888-8.678,8.678-8.678 c4.79,0,8.678,3.879,8.678,8.678v26.034C264.678,299.85,260.79,303.729,256,303.729"/> </g> </g> </g>
</svg>